<svg xmlns="http://www.w3.org/2000/svg" viewBox="0 0 900 650" role="img" aria-label="Original contemporary luxury home facade reference"><defs><linearGradient id="s" x2="1" y2="1"><stop stop-color="#23394d"/><stop offset=".55" stop-color="#7b9db1"/><stop offset="1" stop-color="#d9c7b0"/></linearGradient><linearGradient id="w" x2="1"><stop stop-color="#8d5d3d"/><stop offset="1" stop-color="#3f261b"/></linearGradient><linearGradient id="g" x2="1" y2="1"><stop stop-color="#152f3f"/><stop offset="1" stop-color="#93c5cb"/></linearGradient><filter id="f"><feDropShadow dx="0" dy="14" stdDeviation="14" flood-opacity=".28"/></filter></defs><rect width="900" height="650" fill="url(#s)"/><rect y="455" width="900" height="195" fill="#203726"/><path d="M175 500V235H725V500Z" fill="#ece8e1" filter="url(#f)"/><path d="M150 245H750V290H150Z" fill="#35495a"/><path d="M230 300H650V500H230Z" fill="#d5d0ca"/><rect x="420" y="290" width="175" height="165" rx="8" fill="url(#g)"/><path d="M507 290V455M420 372H595" stroke="#dfe8e8" stroke-width="5"/><rect x="260" y="322" width="115" height="120" fill="url(#w)"/><path d="M267 340H368M267 368H368M267 396H368M267 424H368" stroke="#d4ac85" stroke-width="4" opacity=".65"/><path d="M185 505H715" stroke="#a9a099" stroke-width="22"/><path d="M260 190H640V235H260Z" fill="#f7f4ee"/><path d="M615 340H705V495H615Z" fill="#26313b"/><path d="M625 350H695V435H625Z" fill="url(#g)"/><g fill="#557a4f"><circle cx="95" cy="510" r="55"/><circle cx="800" cy="510" r="62"/><circle cx="145" cy="580" r="45"/><circle cx="760" cy="575" r="48"/></g><g fill="#ffd27f"><circle cx="277" cy="305" r="7"/><circle cx="625" cy="305" r="7"/><circle cx="650" cy="305" r="7"/></g><text x="30" y="48" fill="#fff" font-family="Arial" font-size="24" font-weight="700" letter-spacing="3">CONTEMPORARY LUXURY</text></svg>